<?xml version="1.0" encoding="utf-8"?>
<!-- Generator: Adobe Illustrator 21.0.0, SVG Export Plug-In . SVG Version: 6.00 Build 0)  -->
<svg version="1.1" id="Layer_1" xmlns:figma="http://www.figma.com/figma/ns"
	 xmlns="http://www.w3.org/2000/svg" xmlns:xlink="http://www.w3.org/1999/xlink" x="0px" y="0px" viewBox="0 0 47 57"
	 style="enable-background:new 0 0 47 57;" xml:space="preserve">
<g>
	<path d="M23.5,0.7c13.2,0,23.6,10.8,23,24c-0.2,5.3-2.3,9.9-5.1,14.3c-3.4,5.1-7.5,9.5-12.2,13.5c-1.3,1.1-2.7,2.2-4.1,3.3
		c-1.1,0.9-2.1,0.9-3.2,0.1C14.5,49.9,7.7,43.5,3.4,34.9c-3-5.8-3.9-11.9-1.8-18.2C4.6,7.1,13.4,0.7,23.5,0.7z M41.9,23.6
		c0-9.3-7-17-16.5-18.1C16.2,4.3,7.3,10.9,5.5,20c-1.1,5.6,0.6,10.6,3.4,15.3c3.6,5.9,8.5,10.7,13.8,15.2c0.5,0.5,1,0.5,1.5,0
		c1.8-1.7,3.7-3.2,5.4-4.9c3.5-3.4,6.7-7.1,9.1-11.4C40.6,30.8,41.9,27.4,41.9,23.6z"/>
	<path d="M30.5,35c-1.9,0.6-3.5,1.3-5.1,1.6c-5.6,1-10.6-1.9-13-7.4c-1.9-4.3-0.4-10.5,3.4-13.5c4.3-3.5,10.4-3.8,14.8-0.6
		c4.7,3.4,6.3,9.9,3.6,15.2c-0.5,1-0.4,1.6,0.4,2.3c1.5,1.4,1.1,3.3-0.6,4.1c-1,0.5-1.8,0-2.5-0.6C31,35.8,30.7,35.3,30.5,35z
		 M23.5,17.6c-4.1,0-7.2,3.1-7.2,7.2c0,4.2,3.1,7.3,7.2,7.3c4.1,0,7.2-3.2,7.2-7.3C30.7,20.7,27.6,17.6,23.5,17.6z"/>
	<path d="M28.9,24.7c-0.2,0.2-0.6,0.8-0.9,0.8c-0.4,0-1.1-0.6-1.2-1c-0.2-1.7-1.2-2.5-2.8-3c-0.4-0.1-0.6-0.8-0.9-1.3
		c0.5-0.3,0.9-0.8,1.4-0.8C26.8,19.5,28.9,21.8,28.9,24.7z"/>
</g>
</svg>
